TITLE ""
FILE "DISC2Track35.mp3" MP3
  TRACK 01 AUDIO
    TITLE "DISC2Track35_01"
    INDEX 01 00:00:00
  TRACK 02 AUDIO
    TITLE "DISC2Track35_02"
    INDEX 01 00:01:41
  TRACK 03 AUDIO
    TITLE "DISC2Track35_03"
    INDEX 01 00:01:57
  TRACK 04 AUDIO
    TITLE "DISC2Track35_04"
    INDEX 01 00:05:02
  TRACK 05 AUDIO
    TITLE "DISC2Track35_05"
    INDEX 01 00:08:43
  TRACK 06 AUDIO
    TITLE "DISC2Track35_06"
    INDEX 01 00:11:59
  TRACK 07 AUDIO
    TITLE "DISC2Track35_07"
    INDEX 01 00:11:75
  TRACK 08 AUDIO
    TITLE "DISC2Track35_08"
    INDEX 01 00:15:10
  TRACK 09 AUDIO
    TITLE "DISC2Track35_09"
    INDEX 01 00:18:14
  TRACK 10 AUDIO
    TITLE "DISC2Track35_10"
    INDEX 01 00:20:64
  TRACK 11 AUDIO
    TITLE "DISC2Track35_11"
    INDEX 01 00:21:05
  TRACK 12 AUDIO
    TITLE "DISC2Track35_12"
    INDEX 01 00:24:62
  TRACK 13 AUDIO
    TITLE "DISC2Track35_13"
    INDEX 01 00:27:58
  TRACK 14 AUDIO
    TITLE "DISC2Track35_14"
    INDEX 01 00:30:21
  TRACK 15 AUDIO
    TITLE "DISC2Track35_15"
    INDEX 01 00:30:37
  TRACK 16 AUDIO
    TITLE "DISC2Track35_16"
    INDEX 01 00:33:55
  TRACK 17 AUDIO
    TITLE "DISC2Track35_17"
    INDEX 01 00:37:17
  TRACK 18 AUDIO
    TITLE "DISC2Track35_18"
    INDEX 01 00:40:20
  TRACK 19 AUDIO
    TITLE "DISC2Track35_19"
    INDEX 01 00:40:35
  TRACK 20 AUDIO
    TITLE "DISC2Track35_20"
    INDEX 01 00:42:48
  TRACK 21 AUDIO
    TITLE "DISC2Track35_21"
    INDEX 01 00:44:68
  TRACK 22 AUDIO
    TITLE "DISC2Track35_22"
    INDEX 01 00:46:59
  TRACK 23 AUDIO
    TITLE "DISC2Track35_23"
    INDEX 01 00:46:75
  TRACK 24 AUDIO
    TITLE "DISC2Track35_24"
    INDEX 01 00:49:38
  TRACK 25 AUDIO
    TITLE "DISC2Track35_25"
    INDEX 01 00:52:07
  TRACK 26 AUDIO
    TITLE "DISC2Track35_26"
    INDEX 01 00:54:16
  TRACK 27 AUDIO
    TITLE "DISC2Track35_27"
    INDEX 01 00:54:33
  TRACK 28 AUDIO
    TITLE "DISC2Track35_28"
    INDEX 01 00:58:21
  TRACK 29 AUDIO
    TITLE "DISC2Track35_29"
    INDEX 01 01:01:57
  TRACK 30 AUDIO
    TITLE "DISC2Track35_30"
    INDEX 01 01:04:53
  TRACK 31 AUDIO
    TITLE "DISC2Track35_31"
    INDEX 01 01:05:04
  TRACK 32 AUDIO
    TITLE "DISC2Track35_32"
    INDEX 01 01:06:43
  TRACK 33 AUDIO
    TITLE "DISC2Track35_33"
    INDEX 01 01:08:39
  TRACK 34 AUDIO
    TITLE "DISC2Track35_34"
    INDEX 01 01:10:15
  TRACK 35 AUDIO
    TITLE "DISC2Track35_35"
    INDEX 01 01:10:23
  TRACK 36 AUDIO
    TITLE "DISC2Track35_36"
    INDEX 01 01:13:50
  TRACK 37 AUDIO
    TITLE "DISC2Track35_37"
    INDEX 01 01:16:25
  TRACK 38 AUDIO
    TITLE "DISC2Track35_38"
    INDEX 01 01:18:38
  TRACK 39 AUDIO
    TITLE "DISC2Track35_39"
    INDEX 01 01:18:50
  TRACK 40 AUDIO
    TITLE "DISC2Track35_40"
    INDEX 01 01:21:24
  TRACK 41 AUDIO
    TITLE "DISC2Track35_41"
    INDEX 01 01:23:63
  TRACK 42 AUDIO
    TITLE "DISC2Track35_42"
    INDEX 01 01:25:75
  TRACK 43 AUDIO
    TITLE "DISC2Track35_43"
    INDEX 01 01:26:08
  TRACK 44 AUDIO
    TITLE "DISC2Track35_44"
    INDEX 01 01:28:64
  TRACK 45 AUDIO
    TITLE "DISC2Track35_45"
    INDEX 01 01:32:52
  TRACK 46 AUDIO
    TITLE "DISC2Track35_46"
    INDEX 01 01:36:06
  TRACK 47 AUDIO
    TITLE "DISC2Track35_47"
    INDEX 01 01:36:22
  TRACK 48 AUDIO
    TITLE "DISC2Track35_48"
    INDEX 01 01:39:46
  TRACK 49 AUDIO
    TITLE "DISC2Track35_49"
    INDEX 01 01:42:44
